<svg width="24" height="16" viewBox="0 0 24 16" fill="none" xmlns="http://www.w3.org/2000/svg">
<path d="M1.21422 11.2122H14.207V10.2778C14.0413 10.2778 13.865 10.2567 13.6817 10.2073C13.0294 10.031 12.8672 10.0557 12.5816 10.3801C12.3172 10.6798 11.8835 10.849 11.4674 10.8138C11.0232 10.775 10.8081 10.6727 10.4238 10.4083L10.3956 10.3907C10.1241 10.2038 9.94425 10.0804 9.5141 10.1227C9.49999 10.1227 9.13683 10.1474 8.71725 10.4859C8.48807 10.6727 8.13196 10.916 7.69828 10.9195C7.26107 10.9195 6.90496 10.6727 6.67578 10.4859C6.2562 10.1474 5.89304 10.1227 5.88951 10.1227C5.45231 10.0804 5.27249 10.2038 4.99747 10.3907L4.96926 10.4083C4.58142 10.6727 4.36634 10.775 3.92561 10.8138C3.51308 10.849 3.07587 10.6798 2.81143 10.3801C2.52584 10.0557 2.36365 10.031 1.71137 10.2073C1.5386 10.2531 1.36936 10.2778 1.21069 10.2778V11.2122H1.21422ZM9.12978 13.1126L11.7072 11.7481H14.1506C14.4715 11.8363 14.7042 12.1007 14.7042 12.4145C14.7042 12.7988 14.3516 13.1126 13.9144 13.1126H9.1333H9.12978ZM14.2352 8.35623H1.18249C1.03088 8.23635 0.858108 8.00717 0.858108 7.57349C0.858108 6.67087 2.43417 4.32617 7.71591 4.32617C12.9976 4.32617 14.5737 6.67087 14.5737 7.57349C14.5737 8.00364 14.3939 8.23283 14.2423 8.35623H14.2352ZM7.71238 13.9729L8.40698 13.6062H14.2105V13.846V13.9765C14.2105 13.9765 14.2881 15.0765 12.7861 15.0765H2.64219C1.14018 15.0765 1.21775 13.9765 1.21775 13.9765V13.9377V13.6098H7.02131L7.71591 13.9765L7.71238 13.9729ZM0.64303 9.38931C0.671237 9.14955 0.974463 8.9521 1.1296 8.87806H14.267C14.4186 8.95563 14.7253 9.15308 14.75 9.38931C14.75 9.40341 14.75 9.41399 14.75 9.42809C14.75 9.51624 14.7112 9.59028 14.6336 9.6467C14.4574 9.77363 14.133 9.79478 13.7839 9.69958C13.1598 9.53034 12.7438 9.46335 12.2889 9.98165C12.0598 10.2426 11.7213 10.3096 11.4992 10.2919C11.1607 10.2637 10.9985 10.2003 10.6424 9.95345L10.6142 9.93582C10.3215 9.73484 10.043 9.54445 9.48236 9.60086C9.46121 9.60086 8.98874 9.62554 8.46692 10.0486C8.28357 10.1967 8.0015 10.3977 7.69475 10.3977C7.38448 10.3977 7.10241 10.2003 6.91906 10.0486C6.39724 9.62554 5.92477 9.60439 5.91772 9.60439C5.343 9.54797 5.06446 9.73837 4.77181 9.93934L4.74361 9.95697C4.3875 10.2003 4.22531 10.2637 3.88682 10.2955C3.66469 10.3131 3.32621 10.2461 3.09703 9.98518C2.64219 9.46688 2.22967 9.53387 1.60206 9.70311C1.253 9.79831 0.928626 9.77715 0.752334 9.65022C0.674765 9.59381 0.63598 9.51976 0.63598 9.43162C0.63598 9.42104 0.63598 9.40694 0.63598 9.39283L0.64303 9.38931ZM4.62725 11.7481H10.7975C9.8279 12.2629 7.84636 13.3101 7.71238 13.3806C7.5784 13.3101 5.59687 12.2629 4.62725 11.7481ZM1.27416 11.7481H3.71406L6.29146 13.1126H1.51039C1.07319 13.1126 0.720599 12.7988 0.720599 12.4145C0.720599 12.1007 0.953306 11.8363 1.27416 11.7481Z" fill="#272727"/>
<path d="M14.7324 3.77236H15.5398V3.57491C15.5398 3.34221 15.6985 3.15181 15.8994 3.15181H17.2075L16.3331 0.147776C16.5976 -0.0814051 17.0735 0.0243708 17.0735 0.0243708L18.0396 3.14476L21.8158 3.13418C22.0168 3.13418 22.179 3.32458 22.179 3.55728V3.75121H22.9653C23.2579 3.75121 23.4941 4.02622 23.4941 4.36471V4.93589C23.4941 5.2779 23.2614 5.55292 22.9723 5.55292H22.6761L22.5281 7.404H22.5492L22.186 12.3578H22.1296L21.9463 14.6214C21.9463 14.8612 21.7101 15.0551 21.4139 15.0551L16.3613 15.0692C16.0687 15.0692 15.8289 14.8753 15.8289 14.6391L15.6385 12.4037H15.5821L15.2436 7.82005L15.0497 5.57408H14.7394C14.4468 5.57408 14.2105 5.29906 14.2105 4.96058V4.38939C14.2105 4.04738 14.4433 3.77236 14.7324 3.77236Z" fill="#272727"/>
</svg>
